<svg width="128" height="128" version="1.1" viewBox="0 0 33.867 33.867" xmlns="http://www.w3.org/2000/svg">
 <path d="m0.73691 5.0002c-0.40821 0-0.73691 0.32818-0.73691 0.73639v4.2633 1.51 16.49c1.5666e-16 1.108 0.89188 2.0004 1.9999 2.0004h30c1.108 0 1.9999-0.8924 1.9999-2.0004v-18c0-1.108-0.89188-1.9999-1.9999-1.9999h-15.067v-2.2634c0-0.40821-0.3287-0.73639-0.73691-0.73639h-15.46z" fill="#b9c05a"/>
 <path d="m3 9h27c1.108 0 2 0.892 2 2v5.5508c0 1.108-0.892 2-2 2h-27c-1.108 0-2-0.892-2-2v-5.5508c0-1.108 0.892-2 2-2z" fill="#f4f4ec" stroke-width=".15928"/>
 <rect y="10.008" width="34" height="19.992" ry="2" fill="#d6dc7a"/>
 <path d="m2 10.008h29c1.108 0 2 0.892 2 2v14.992c0 1.108-0.892 2-2 2h-29c-1.108 0-2-0.892-2-2v-14.992c0-1.108 0.892-2 2-2z" fill="#e0e68d" stroke-width=".15928"/>
</svg>
